<?xml version="1.0" encoding="utf-8"?>
<!-- Generated by Mocodo 4.2.8 -->
<svg width="625" height="361" viewBox="0 0 625 361" xmlns="http://www.w3.org/2000/svg">
<rect x="0" y="0" width="625" height="361" fill="#f7f7f7" stroke="none" stroke-width="0"/>

<!-- Association VALIDE -->
<g>
	<line x1="292" y1="109" x2="413" y2="34" stroke="#8073ac" stroke-width="2"/>
	<line x1="532" y1="109" x2="413" y2="34" stroke="#8073ac" stroke-width="2"/>
	<g>
		<path d="M425 9 a14 14 90 0 1 14 14 V34 h-52 V23 a14 14 90 0 1 14 -14" fill="#b2abd2" stroke="#b2abd2" stroke-width="0"/>
		<path d="M439 34 v11 a14 14 90 0 1 -14 14 H401 a14 14 90 0 1 -14 -14 V34 H52" fill="#d8daeb" stroke="#d8daeb" stroke-width="0"/>
		<rect x="387" y="9" width="52" height="50" fill="none" rx="14" stroke="#8073ac" stroke-width="2"/>
		<line x1="387" y1="34" x2="439" y2="34" stroke="#8073ac" stroke-width="1"/>
		<text x="395" y="26.75" fill="#000000" font-family="Verdana" font-size="12">valide</text>
	</g>
	<text x="345" y="91.46" fill="#b35806" font-family="Verdana" font-size="12">0,1</text>
	<text x="460" y="92.15" fill="#b35806" font-family="Verdana" font-size="12">0,1</text>
</g>

<!-- Association POSSEDE -->
<g>
	<line x1="292" y1="109" x2="180" y2="109" stroke="#8073ac" stroke-width="2"/>
	<line x1="59" y1="109" x2="180" y2="109" stroke="#8073ac" stroke-width="2"/>
	<g>
		<path d="M198 84 a14 14 90 0 1 14 14 V109 h-64 V98 a14 14 90 0 1 14 -14" fill="#b2abd2" stroke="#b2abd2" stroke-width="0"/>
		<path d="M212 109 v11 a14 14 90 0 1 -14 14 H162 a14 14 90 0 1 -14 -14 V109 H64" fill="#d8daeb" stroke="#d8daeb" stroke-width="0"/>
		<rect x="148" y="84" width="64" height="50" fill="none" rx="14" stroke="#8073ac" stroke-width="2"/>
		<line x1="148" y1="109" x2="212" y2="109" stroke="#8073ac" stroke-width="1"/>
		<text x="155" y="101.75" fill="#000000" font-family="Verdana" font-size="12">possède</text>
	</g>
	<text x="218" y="126" fill="#b35806" font-family="Verdana" font-size="12">1,1</text>
	<text x="112" y="126" fill="#b35806" font-family="Verdana" font-size="12">0,N</text>
</g>

<!-- Association CORRESPOND -->
<g>
	<line x1="292" y1="109" x2="413" y2="109" stroke="#8073ac" stroke-width="2"/>
	<line x1="532" y1="109" x2="413" y2="109" stroke="#8073ac" stroke-width="2"/>
	<g>
		<path d="M440 84 a14 14 90 0 1 14 14 V109 h-82 V98 a14 14 90 0 1 14 -14" fill="#b2abd2" stroke="#b2abd2" stroke-width="0"/>
		<path d="M454 109 v11 a14 14 90 0 1 -14 14 H386 a14 14 90 0 1 -14 -14 V109 H82" fill="#d8daeb" stroke="#d8daeb" stroke-width="0"/>
		<rect x="372" y="84" width="82" height="50" fill="none" rx="14" stroke="#8073ac" stroke-width="2"/>
		<line x1="372" y1="109" x2="454" y2="109" stroke="#8073ac" stroke-width="1"/>
		<text x="379" y="101.75" fill="#000000" font-family="Verdana" font-size="12">correspond</text>
	</g>
	<text x="345" y="126" fill="#b35806" font-family="Verdana" font-size="12">0,N</text>
	<text x="460" y="126" fill="#b35806" font-family="Verdana" font-size="12">1,1</text>
</g>

<!-- Association COMPOSER -->
<g>
	<line x1="292" y1="293" x2="292" y2="201" stroke="#8073ac" stroke-width="2"/>
	<line x1="292" y1="109" x2="292" y2="201" stroke="#8073ac" stroke-width="2"/>
	<g>
		<path d="M315 176 a14 14 90 0 1 14 14 V201 h-74 V190 a14 14 90 0 1 14 -14" fill="#b2abd2" stroke="#b2abd2" stroke-width="0"/>
		<path d="M329 201 v11 a14 14 90 0 1 -14 14 H269 a14 14 90 0 1 -14 -14 V201 H74" fill="#d8daeb" stroke="#d8daeb" stroke-width="0"/>
		<rect x="255" y="176" width="74" height="50" fill="none" rx="14" stroke="#8073ac" stroke-width="2"/>
		<line x1="255" y1="201" x2="329" y2="201" stroke="#8073ac" stroke-width="1"/>
		<text x="263" y="193.75" fill="#000000" font-family="Verdana" font-size="12">composer</text>
	</g>
	<text x="297" y="243" fill="#b35806" font-family="Verdana" font-size="12">0,N</text>
	<text x="297" y="168" fill="#b35806" font-family="Verdana" font-size="12">1,1</text>
</g>

<!-- Association APPARTENIR -->
<g>
	<line x1="59" y1="293" x2="180" y2="293" stroke="#8073ac" stroke-width="2"/>
	<line x1="292" y1="293" x2="180" y2="293" stroke="#8073ac" stroke-width="2"/>
	<g>
		<path d="M205 268 a14 14 90 0 1 14 14 V293 h-78 V282 a14 14 90 0 1 14 -14" fill="#b2abd2" stroke="#b2abd2" stroke-width="0"/>
		<path d="M219 293 v11 a14 14 90 0 1 -14 14 H155 a14 14 90 0 1 -14 -14 V293 H78" fill="#d8daeb" stroke="#d8daeb" stroke-width="0"/>
		<rect x="141" y="268" width="78" height="50" fill="none" rx="14" stroke="#8073ac" stroke-width="2"/>
		<line x1="141" y1="293" x2="219" y2="293" stroke="#8073ac" stroke-width="1"/>
		<text x="149" y="285.75" fill="#000000" font-family="Verdana" font-size="12">appartenir</text>
	</g>
	<text x="114" y="310" fill="#b35806" font-family="Verdana" font-size="12">0,N</text>
	<text x="226" y="310" fill="#b35806" font-family="Verdana" font-size="12">0,N</text>
</g>

<!-- Association CREER -->
<g>
	<line x1="532" y1="293" x2="413" y2="293" stroke="#8073ac" stroke-width="2"/>
	<line x1="292" y1="293" x2="413" y2="293" stroke="#8073ac" stroke-width="2"/>
	<g>
		<path d="M422 268 a14 14 90 0 1 14 14 V293 h-46 V282 a14 14 90 0 1 14 -14" fill="#b2abd2" stroke="#b2abd2" stroke-width="0"/>
		<path d="M436 293 v11 a14 14 90 0 1 -14 14 H404 a14 14 90 0 1 -14 -14 V293 H46" fill="#d8daeb" stroke="#d8daeb" stroke-width="0"/>
		<rect x="390" y="268" width="46" height="50" fill="none" rx="14" stroke="#8073ac" stroke-width="2"/>
		<line x1="390" y1="293" x2="436" y2="293" stroke="#8073ac" stroke-width="1"/>
		<text x="397" y="285.75" fill="#000000" font-family="Verdana" font-size="12">créer</text>
	</g>
	<text x="453" y="310" fill="#b35806" font-family="Verdana" font-size="12">0,N</text>
	<text x="336" y="310" fill="#b35806" font-family="Verdana" font-size="12">1,1</text>
</g>

<!-- Entity DIFFICULTE -->
<g>
	<g>
		<rect x="11" y="75" width="96" height="25" fill="#fdb863" stroke="none" stroke-width="0" opacity="1"/>
		<rect x="11" y="100" width="96" height="43" fill="#fee0b6" stroke="none" stroke-width="0" opacity="1"/>
		<rect x="11" y="75" width="96" height="68" fill="none" stroke="#e08214" stroke-width="2" opacity="1"/>
		<line x1="11" y1="100" x2="107" y2="100" stroke="#e08214" stroke-width="1"/>
	</g>
	<text x="32" y="92.75" fill="#000000" font-family="Verdana" font-size="12">Difficulté</text>
	<text x="16" y="117.8" fill="#000000" font-family="Verdana" font-size="12">code difficulté</text>
	<line x1="16" y1="120" x2="101" y2="120" stroke="#000000" stroke-width="1"/>
	<text x="16" y="134.8" fill="#000000" font-family="Verdana" font-size="12">libellé</text>
</g>

<!-- Entity QUESTION -->
<g>
	<g>
		<rect x="244" y="67" width="96" height="25" fill="#fdb863" stroke="none" stroke-width="0" opacity="1"/>
		<rect x="244" y="92" width="96" height="59" fill="#fee0b6" stroke="none" stroke-width="0" opacity="1"/>
		<rect x="244" y="67" width="96" height="84" fill="none" stroke="#e08214" stroke-width="2" opacity="1"/>
		<line x1="244" y1="92" x2="340" y2="92" stroke="#e08214" stroke-width="1"/>
	</g>
	<text x="265" y="84.75" fill="#000000" font-family="Verdana" font-size="12">Question</text>
	<text x="249" y="109.8" fill="#000000" font-family="Verdana" font-size="12">code question</text>
	<line x1="249" y1="112" x2="334" y2="112" stroke="#000000" stroke-width="1"/>
	<text x="249" y="126.8" fill="#000000" font-family="Verdana" font-size="12">titre</text>
	<text x="249" y="143.8" fill="#000000" font-family="Verdana" font-size="12">anecdote</text>
</g>

<!-- Entity REPONSE -->
<g>
	<g>
		<rect x="486" y="75" width="92" height="25" fill="#fdb863" stroke="none" stroke-width="0" opacity="1"/>
		<rect x="486" y="100" width="92" height="43" fill="#fee0b6" stroke="none" stroke-width="0" opacity="1"/>
		<rect x="486" y="75" width="92" height="68" fill="none" stroke="#e08214" stroke-width="2" opacity="1"/>
		<line x1="486" y1="100" x2="578" y2="100" stroke="#e08214" stroke-width="1"/>
	</g>
	<text x="506" y="92.75" fill="#000000" font-family="Verdana" font-size="12">Réponse</text>
	<text x="491" y="117.8" fill="#000000" font-family="Verdana" font-size="12">code réponse</text>
	<line x1="491" y1="120" x2="572" y2="120" stroke="#000000" stroke-width="1"/>
	<text x="491" y="134.8" fill="#000000" font-family="Verdana" font-size="12">libellé</text>
</g>

<!-- Entity CATEGORIE -->
<g>
	<g>
		<rect x="9" y="259" width="100" height="25" fill="#fdb863" stroke="none" stroke-width="0" opacity="1"/>
		<rect x="9" y="284" width="100" height="43" fill="#fee0b6" stroke="none" stroke-width="0" opacity="1"/>
		<rect x="9" y="259" width="100" height="68" fill="none" stroke="#e08214" stroke-width="2" opacity="1"/>
		<line x1="9" y1="284" x2="109" y2="284" stroke="#e08214" stroke-width="1"/>
	</g>
	<text x="30" y="276.75" fill="#000000" font-family="Verdana" font-size="12">Catégorie</text>
	<text x="14" y="301.8" fill="#000000" font-family="Verdana" font-size="12">code catégorie</text>
	<line x1="14" y1="304" x2="103" y2="304" stroke="#000000" stroke-width="1"/>
	<text x="14" y="318.8" fill="#000000" font-family="Verdana" font-size="12">libellé</text>
</g>

<!-- Entity QUIZ -->
<g>
	<g>
		<rect x="253" y="251" width="78" height="25" fill="#fdb863" stroke="none" stroke-width="0" opacity="1"/>
		<rect x="253" y="276" width="78" height="59" fill="#fee0b6" stroke="none" stroke-width="0" opacity="1"/>
		<rect x="253" y="251" width="78" height="84" fill="none" stroke="#e08214" stroke-width="2" opacity="1"/>
		<line x1="253" y1="276" x2="331" y2="276" stroke="#e08214" stroke-width="1"/>
	</g>
	<text x="278" y="268.75" fill="#000000" font-family="Verdana" font-size="12">Quiz</text>
	<text x="258" y="293.8" fill="#000000" font-family="Verdana" font-size="12">code quiz</text>
	<line x1="258" y1="296" x2="316" y2="296" stroke="#000000" stroke-width="1"/>
	<text x="258" y="310.8" fill="#000000" font-family="Verdana" font-size="12">titre</text>
	<text x="258" y="327.8" fill="#000000" font-family="Verdana" font-size="12">description</text>
</g>

<!-- Entity UTILISATEUR -->
<g>
	<g>
		<rect x="480" y="234" width="104" height="25" fill="#fdb863" stroke="none" stroke-width="0" opacity="1"/>
		<rect x="480" y="259" width="104" height="93" fill="#fee0b6" stroke="none" stroke-width="0" opacity="1"/>
		<rect x="480" y="234" width="104" height="118" fill="none" stroke="#e08214" stroke-width="2" opacity="1"/>
		<line x1="480" y1="259" x2="584" y2="259" stroke="#e08214" stroke-width="1"/>
	</g>
	<text x="501" y="251.75" fill="#000000" font-family="Verdana" font-size="12">Utilisateur</text>
	<text x="485" y="276.8" fill="#000000" font-family="Verdana" font-size="12">code utilisateur</text>
	<line x1="485" y1="279" x2="579" y2="279" stroke="#000000" stroke-width="1"/>
	<text x="485" y="293.8" fill="#000000" font-family="Verdana" font-size="12">nom</text>
	<text x="485" y="310.8" fill="#000000" font-family="Verdana" font-size="12">prénom</text>
	<text x="485" y="327.8" fill="#000000" font-family="Verdana" font-size="12">email</text>
	<text x="485" y="344.8" fill="#000000" font-family="Verdana" font-size="12">mot de passe</text>
</g>
</svg>