<?xml version="1.0" encoding="utf-8"?>
<svg viewBox="0 0 64 64" fill="#000000" style="fill-rule:evenodd;clip-rule:evenodd;stroke-linejoin:round;stroke-miterlimit:2;" xmlns="http://www.w3.org/2000/svg">
  <g transform="matrix(1, 0, 0, 1, -1216, -256)">
    <rect id="Icons" x="0" y="0" width="1280" height="800" style="fill:none;"/>
    <g id="Icons1">
      <g id="Strike"/>
      <g id="H1"/>
      <g id="H2"/>
      <g id="H3"/>
      <g id="list-ul"/>
      <g id="hamburger-1"/>
      <g id="hamburger-2"/>
      <g id="list-ol"/>
      <g id="list-task"/>
      <g id="trash"/>
      <g id="vertical-menu"/>
      <g id="horizontal-menu"/>
      <g id="sidebar-2"/>
      <g id="Pen"/>
      <g id="Pen1"/>
      <g id="clock"/>
      <g id="external-link"/>
      <g id="hr"/>
      <g id="info"/>
      <g id="warning"/>
      <g id="plus-circle"/>
      <g id="minus-circle"/>
      <g id="vue"/>
      <g id="cog"/>
      <g id="logo"/>
      <g id="radio-check"/>
      <g id="eye-slash"/>
      <g id="eye"/>
      <g id="toggle-off"/>
      <g id="shredder"/>
      <g id="spinner--loading--dots-"/>
      <g id="react"/>
      <g id="check-selected"/>
      <g id="turn-off"/>
      <g id="code-block"/>
      <g id="user"/>
      <g id="coffee-bean"/>
      <g transform="matrix(0.638317,0.368532,-0.368532,0.638317,785.021,-208.975)">
        <g id="coffee-beans">
          <g id="coffee-bean1"/>
        </g>
      </g>
      <g id="coffee-bean-filled"/>
      <g id="coffee-beans-filled" transform="matrix(0.812857,0,0,0.812857,602.165,-0.132909)">
        <g id="coffee-bean2" transform="matrix(0.785276,0.453379,-0.453379,0.785276,382.475,-256.924)">
          <g transform="matrix(1,0,0,1,0,-0.699553)">
            <path d="M737.049,328.389C738.206,328.093 739.418,328.601 740.019,329.632C740.083,329.683 740.106,329.722 740.106,329.722C740.106,329.722 745.206,338.581 739.429,352.782C737.281,358.061 736.606,364.8 737.988,370.192C738.252,371.236 737.868,372.336 737.014,372.991C736.159,373.645 734.997,373.729 734.058,373.203C728.69,370.091 722.027,363.796 722.021,352C722.016,340.504 728.495,330.75 737.049,328.389Z" style="fill: rgb(247, 219, 185);"/>
          </g>
          <g transform="matrix(-1,0,0,-1,1483.03,703.293)">
            <path d="M736.986,328.407C738.175,328.097 739.426,328.617 740.045,329.679C740.093,329.701 740.106,329.722 740.106,329.722C740.106,329.722 745.206,338.581 739.429,352.782C737.261,358.111 736.594,364.927 738.028,370.344C738.292,371.357 737.928,372.429 737.101,373.072C736.275,373.714 735.146,373.803 734.23,373.297C728.832,370.224 722.027,363.921 722.021,352C722.016,340.532 728.463,330.798 736.986,328.407Z" style="fill: rgb(247, 219, 185);"/>
          </g>
        </g>
        <g transform="matrix(1.23023,0,0,1.23023,-189.709,-77.6604)">
          <path d="M792.011,368.377C792.881,368.366 793.638,367.779 793.867,366.94C793.905,366.882 793.915,366.845 793.915,366.845C793.915,366.845 795.856,359.564 789.034,350.557C786.506,347.219 784.744,342.57 784.688,338.477C784.673,337.676 784.184,336.961 783.442,336.657C782.701,336.353 781.85,336.519 781.277,337.079C778.06,340.326 774.552,346.067 776.79,354.434C778.981,362.627 785.464,368.338 792.011,368.377ZM796.55,364C797.325,364.444 797.962,364.63 798.879,364.474C798.492,365.399 797.919,366.083 797.371,366.569C797.121,366.766 796.776,366.793 796.499,366.637C796.221,366.482 796.064,366.174 796.102,365.858C796.127,365.354 796.248,364.755 796.55,364ZM800,338.416C792.778,343.712 792.722,351.486 792.429,351.099C785.607,342.091 787.425,334.591 787.425,334.591C787.425,334.591 787.436,334.55 787.454,334.483C787.683,333.644 788.434,333.052 789.304,333.027C793.183,333.073 797.042,335.08 800,338.416Z" style="fill: #3E1E04"/>
        </g>
      </g>
      <g id="clipboard"/>
      <g transform="matrix(1,0,0,1,128.011,1.35415)">
        <g id="clipboard-paste"/>
      </g>
      <g id="clipboard-copy"/>
      <g id="Layer1"/>
    </g>
  </g>
</svg>